PathFileType	4	(X/Y/Z)	/Users/rkoike/Documents/python/sports2d/webcam_20250611_152632/webcam_20250611_152632_px_person01.trc
DataRate	CameraRate	NumFrames	NumMarkers	Units	OrigDataRate	OrigDataStartFrame	OrigNumFrames
30	30	11	22	m	30	1863	2485
Frame#	Time	Hip			RHip			RKnee			RAnkle			RBigToe			RSmallToe			RHeel			LHip			LKnee			LAnkle			LBigToe			LSmallToe			LHeel			Neck			Head			Nose			RShoulder			RElbow			RWrist			LShoulder			LElbow			LWrist			
		X1	Y1	Z1	X2	Y2	Z2	X3	Y3	Z3	X4	Y4	Z4	X5	Y5	Z5	X6	Y6	Z6	X7	Y7	Z7	X8	Y8	Z8	X9	Y9	Z9	X10	Y10	Z10	X11	Y11	Z11	X12	Y12	Z12	X13	Y13	Z13	X14	Y14	Z14	X15	Y15	Z15	X16	Y16	Z16	X17	Y17	Z17	X18	Y18	Z18	X19	Y19	Z19	X20	Y20	Z20	X21	Y21	Z21	X22	Y22	Z22
1863	62.12499999999999	663.4046053955404	750.7831405010783	0.0	543.5810981676975	739.0044113132132	0.0	437.98204081245825	700.7978493417498	0.0	577.5833269755051	659.2435934940974	0.0	923.0365826395873	579.129389867938	0.0	244.879150390625	790.1848144531251	0.0	226.846923828125	724.066650390625	0.0	774.9374518104056	741.1093975846743	0.0	963.5929099415791	731.638406495097	0.0	609.0982894897462	663.7457309961319	0.0	118.05419921875	736.7119140624999	0.0	1036.3034393821563	593.2877469607586	0.0	958.4324753716401	550.8126756822955	0.0	773.9007661997366	431.8111254491436	0.0	800.461498748324	172.7016288196364	0.0	794.4425613493902	333.9518241461176	0.0	569.0735622924657	426.58257693044675	0.0	343.1651781188132	576.632357005528	0.0	430.74072691738064	401.97046692543387	0.0	953.4543262905345	535.1617592880988	0.0	985.6522725125345	726.8573882696506	0.0	949.2522019729607	727.8499667939308	0.0
1864	62.15834675254964	662.4759929967963	744.839310104776	0.0	545.7046933484104	734.1087574821538	0.0	431.391223220252	697.7157431479329	0.0	577.5833269755051	659.2435934940974	0.0	923.0365826395873	579.129389867938	0.0	244.879150390625	790.1848144531251	0.0	226.846923828125	724.066650390625	0.0	774.5088843312009	733.2020468330531	0.0	963.5938689110986	731.638492599119	0.0	609.0982894897462	663.7457309961319	0.0	118.05419921875	736.7119140624999	0.0	1036.3034393821563	593.2877469607586	0.0	958.4324753716401	550.8126756822955	0.0	773.2473923822291	432.12893424999663	0.0	799.4275416447073	172.99506726281348	0.0	795.1679673805376	333.9397106443362	0.0	569.4818438019147	426.6635335756027	0.0	342.79679689584606	574.7003092432032	0.0	432.23859514754037	402.75331648208356	0.0	952.3632904367743	536.0317263625342	0.0	985.1595361597273	723.5072416058626	0.0	929.7818123377435	723.4151633391513	0.0
1865	62.191693505099295	665.5293288355111	740.840799255756	0.0	548.9352908536249	731.7447347116944	0.0	428.6108031020187	696.4159909534908	0.0	577.5833269755051	659.2435934940974	0.0	923.0365826395873	579.129389867938	0.0	244.879150390625	790.1848144531251	0.0	226.846923828125	724.066650390625	0.0	776.7081027969357	730.2532239348154	0.0	963.5092113817657	731.6308913629888	0.0	609.0982894897462	663.7457309961319	0.0	118.05419921875	736.7119140624999	0.0	1036.3034393821563	593.2877469607586	0.0	958.4324753716401	550.8126756822955	0.0	773.1536753910882	434.51548543684106	0.0	798.0643972834318	174.9042405091529	0.0	794.8873138831092	334.8701076984455	0.0	568.4119180501605	431.0094295520408	0.0	341.8738434906706	574.0157016279571	0.0	430.77368306116375	403.813057765343	0.0	951.8346232630802	537.2759599797992	0.0	985.3801565485127	722.0846647683344	0.0	931.4279747066702	723.4012400864492	0.0
1866	62.22504025764894	668.477220089513	747.2341528088516	0.0	549.8177133346326	737.4825041466519	0.0	428.4750741632473	696.3526204485804	0.0	577.5833269755051	659.2435934940974	0.0	923.0365826395873	579.129389867938	0.0	244.879150390625	790.1848144531251	0.0	226.846923828125	724.066650390625	0.0	778.7527139293627	738.8480350589412	0.0	963.4777403256784	731.6280656376166	0.0	609.0982894897462	663.7457309961319	0.0	118.05419921875	736.7119140624999	0.0	1036.3034393821563	593.2877469607586	0.0	958.4324753716401	550.8126756822955	0.0	772.792793669324	434.42244091336414	0.0	798.5149590551493	174.05732554348302	0.0	793.099901168472	336.120378528312	0.0	567.2871970107777	432.14764621162436	0.0	342.60556958749515	576.0742600303239	0.0	429.3619569494733	404.4727351946336	0.0	952.4993335798113	536.3358480497965	0.0	986.9181039443672	726.1861338099326	0.0	951.1698747898489	727.8628737967696	0.0
1867	62.2583870101986	668.9211946828234	752.8012938794565	0.0	550.3446709976666	740.2812370679976	0.0	428.96936138982704	696.5837426071756	0.0	577.5833269755051	659.2435934940974	0.0	923.0365826395873	579.129389867938	0.0	244.879150390625	790.1848144531251	0.0	226.846923828125	724.066650390625	0.0	778.3181435213287	742.4255259956104	0.0	963.4826881832979	731.6285098962006	0.0	609.0982894897462	663.7457309961319	0.0	118.05419921875	736.7119140624999	0.0	1036.3034393821563	593.2877469607586	0.0	958.4324753716401	550.8126756822955	0.0	771.4369537305079	431.8593797978568	0.0	799.5807895680199	172.62986313191396	0.0	791.3177796178795	337.0087047570756	0.0	567.168512560023	428.4486507684343	0.0	345.58670285820364	577.5018544939604	0.0	430.9749102130545	403.5820644201981	0.0	953.0436249340488	533.8894078015732	0.0	988.0733028723038	729.0153106268598	0.0	956.8976495472511	730.0232223308695	0.0
1868	62.291733762748244	668.9450937153061	747.6646164590937	0.0	551.8229432174751	734.3676548232165	0.0	429.17856832958444	696.681647696936	0.0	577.5833269755051	659.2435934940974	0.0	923.0365826395873	579.129389867938	0.0	244.879150390625	790.1848144531251	0.0	226.846923828125	724.066650390625	0.0	776.4739619496157	733.5723176055075	0.0	963.4906790794233	731.6292273833375	0.0	609.0982894897462	663.7457309961319	0.0	118.05419921875	736.7119140624999	0.0	1036.3034393821563	593.2877469607586	0.0	958.4324753716401	550.8126756822955	0.0	770.7051957964893	431.2412144754147	0.0	798.0231064935654	174.56753684419746	0.0	790.2268219257941	337.17250254012936	0.0	567.5782830188504	426.89240139580386	0.0	346.73526419331284	576.6607240983628	0.0	432.6478649231399	402.64988871448895	0.0	953.085277190541	533.0009308927862	0.0	987.1028461516207	726.0144904922143	0.0	937.9198611457143	727.6683578043023	0.0
1869	62.3250805152979	669.68729223716	741.3339164467152	0.0	551.4609950880601	730.2649798900466	0.0	429.1590788876001	696.6725992548273	0.0	577.5833269755051	659.2435934940974	0.0	923.0365826395873	579.129389867938	0.0	244.879150390625	790.1848144531251	0.0	226.846923828125	724.066650390625	0.0	775.6116396288437	727.7302877037454	0.0	963.4926630660455	731.6294055216662	0.0	609.0982894897462	663.7457309961319	0.0	118.05419921875	736.7119140624999	0.0	1036.3034393821563	593.2877469607586	0.0	958.4324753716401	550.8126756822955	0.0	771.7287906204689	432.8276082917094	0.0	794.2419130120543	176.6178996447006	0.0	789.2236960544196	336.73907467979046	0.0	568.2190566938348	430.0738306794148	0.0	343.9691192710013	575.9475664629454	0.0	431.1416285317675	403.35152425389845	0.0	953.9358209481196	533.7754452326038	0.0	985.9552789374698	723.5935322315024	0.0	915.07632574124	725.2474721441723	0.0
1870	62.358427267847546	669.1930719394933	743.5172116971978	0.0	548.6700480077617	733.9122069269762	0.0	429.1110164652953	696.6496808710893	0.0	577.5833269755051	659.2435934940974	0.0	923.0365826395873	579.129389867938	0.0	244.879150390625	790.1848144531251	0.0	226.846923828125	724.066650390625	0.0	776.0185842336915	732.6195354356946	0.0	963.491831460399	731.6293308534007	0.0	609.0982894897462	663.7457309961319	0.0	118.05419921875	736.7119140624999	0.0	1036.3034393821563	593.2877469607586	0.0	958.4324753716401	550.8126756822955	0.0	772.5414406016557	432.5007425713171	0.0	791.6736254939882	174.60610720395306	0.0	788.1478006343573	335.9174461414747	0.0	569.0854242610641	432.76787596405114	0.0	341.4162182021356	576.0927516333529	0.0	429.15437806914605	404.1436748859766	0.0	955.8992560413618	533.385798449788	0.0	987.441676340088	726.3992615091696	0.0	904.2301424381236	725.8104238224819	0.0
1871	62.3917740203972	667.2588062763821	745.3588140326357	0.0	547.2503531177588	735.3126537434265	0.0	429.09731193855754	696.6420677768169	0.0	577.5833269755051	659.2435934940974	0.0	923.0365826395873	579.129389867938	0.0	244.879150390625	790.1848144531251	0.0	226.846923828125	724.066650390625	0.0	776.770449658819	734.0789224350959	0.0	963.4911356635913	731.6292683791485	0.0	609.0982894897462	663.7457309961319	0.0	118.05419921875	736.7119140624999	0.0	1036.3034393821563	593.2877469607586	0.0	958.4324753716401	550.8126756822955	0.0	771.2104872400315	430.5890566534756	0.0	791.0271652650894	172.24243706916366	0.0	787.5773339547428	335.1041512772505	0.0	569.1986501239088	432.43329705056743	0.0	342.12205769848396	574.9816685703652	0.0	430.1031032314353	403.07194559774007	0.0	956.8690250712398	531.7232043854124	0.0	989.5385188845056	727.867849762806	0.0	904.5051621749981	728.7395006587664	0.0
1872	62.425120772946855	667.2117132348957	737.3764839666063	0.0	548.672871757402	727.8583170336767	0.0	429.10157251294333	696.6440738086176	0.0	577.5833269755051	659.2435934940974	0.0	923.0365826395873	579.129389867938	0.0	244.879150390625	790.1848144531251	0.0	226.846923828125	724.066650390625	0.0	778.8288170727049	724.3199319096135	0.0	963.491041389074	731.6292599144215	0.0	609.0982894897462	663.7457309961319	0.0	118.05419921875	736.7119140624999	0.0	1036.3034393821563	593.2877469607586	0.0	958.4324753716401	550.8126756822955	0.0	769.4548815857271	431.25761413821004	0.0	790.0304068933292	174.26250621059503	0.0	787.6148935367701	334.56245598402296	0.0	568.0881860131021	432.0852042325754	0.0	343.6644589221751	572.965985532337	0.0	431.8416405989627	401.8149976708354	0.0	955.5966305214839	531.872372851243	0.0	988.3931306284433	722.9541142178936	0.0	915.3610253732331	733.7406276632533	0.0
1873	62.4584675254965	671.1596252071417	730.9180118037266	0.0	550.5825742610859	722.829208314091	0.0	429.10444387295973	696.6516090517547	0.0	577.5833269755051	659.2435934940974	0.0	923.0365826395873	579.129389867938	0.0	244.879150390625	790.1848144531251	0.0	226.846923828125	724.066650390625	0.0	783.7477471566611	719.6303455848386	0.0	963.4911428000066	731.6292690199134	0.0	609.0982894897462	663.7457309961319	0.0	118.05419921875	736.7119140624999	0.0	1036.3034393821563	593.2877469607586	0.0	958.4324753716401	550.8126756822955	0.0	770.0647110857127	433.80989534241525	0.0	788.4639097138614	177.016582763677	0.0	787.568504598739	333.8926573437994	0.0	567.6105512873677	433.1943314262001	0.0	343.4481817153296	574.3697810102261	0.0	431.0423318318431	403.3929456812884	0.0	954.4013741499141	534.3924747101102	0.0	986.1027551137519	719.1338666383641	0.0	936.9747819677307	741.0597693997939	0.0
